{
  "asset": {
    "version": "2.0",
    "generator": "virtual-revelation svg-to-gltf"
  },
  "buffers": [
    {
      "uri": "data:application/octet-stream;base64,",
      "byteLength": 60
    }
  ],
  "bufferViews": [
    {
      "buffer": 0,
      "byteOffset": 0,
      "byteLength": 48
    },
    {
      "buffer": 0,
      "byteOffset": 48,
      "byteLength": 12
    }
  ],
  "accessors": [
    {
      "bufferView": 0,
      "componentType": 5126,
      "count": 4,
      "type": "VEC3",
      "min": [
        0,
        0,
        0
      ],
      "max": [
        8,
        8,
        0
      ]
    },
    {
      "bufferView": 1,
      "componentType": 5123,
      "count": 6,
      "type": "SCALAR"
    }
  ],
  "materials": [
    {
      "name": "node_default",
      "pbrMetallicRoughness": {
        "baseColorFactor": [
          0.17254901960784313,
          0.12156862745098039,
          0.08627450980392157,
          1
        ],
        "metallicFactor": 0,
        "roughnessFactor": 0.9
      },
      "alphaMode": "OPAQUE",
      "doubleSided": true
    }
  ],
  "meshes": [
    {
      "primitives": [
        {
          "attributes": {
            "POSITION": 0
          },
          "indices": 1,
          "material": 0,
          "mode": 4
        }
      ],
      "name": "rect_shape_0"
    }
  ],
  "nodes": [
    {
      "mesh": 0,
      "name": "rect_shape_0"
    }
  ],
  "scenes": [
    {
      "nodes": [
        0
      ]
    }
  ],
  "scene": 0
}